<svg width="16" height="16" viewBox="0 0 16 16" fill="none" xmlns="http://www.w3.org/2000/svg">
<g clip-path="url(#clip0_355_13810)">
<path d="M13.0333 3.2395H3.60004C2.81857 3.2395 2.18506 3.87301 2.18506 4.65449V13.1444C2.18506 13.9259 2.81857 14.5594 3.60004 14.5594H13.0333C13.8147 14.5594 14.4483 13.9259 14.4483 13.1444V4.65449C14.4483 3.87301 13.8147 3.2395 13.0333 3.2395Z" stroke="#797979" stroke-width="0.943323" stroke-linejoin="round"/>
<path d="M4.54337 2.29614V3.23947M12.09 2.29614V3.23947M14.4483 5.59777H2.18506M9.73164 8.54566L11.0116 7.60233H11.1466V12.5548M5.30923 8.04245C5.43687 7.82667 5.79415 7.48442 6.425 7.48442C7.17082 7.48442 7.83674 7.89064 7.83674 8.66062C7.83843 8.80968 7.81027 8.95758 7.75392 9.09559C7.69757 9.2336 7.61418 9.35893 7.50864 9.46422C7.18644 9.79409 6.69473 9.92026 6.42618 9.92026C6.72981 9.92026 7.28667 10.0629 7.65103 10.4355C7.8845 10.6734 7.99239 11.0089 7.99239 11.3809C7.99239 12.2028 7.29875 12.6727 6.45595 12.6727C5.74345 12.6727 5.30628 12.1548 5.16242 11.911" stroke="#797979" stroke-width="0.943323" stroke-linecap="round" stroke-linejoin="round"/>
</g>
<defs>
<clipPath id="clip0_355_13810">
<rect width="15.0932" height="15.0932" fill="white" transform="translate(0.77002 0.88208)"/>
</clipPath>
</defs>
</svg>
