<svg width="18" height="17" viewBox="0 0 18 17" fill="none" xmlns="http://www.w3.org/2000/svg">
<path d="M9.15509 1.61597C6.55113 1.61597 4.43848 3.62675 4.43848 6.1033C4.43848 8.95292 7.58289 13.4688 8.73747 15.0285C8.7854 15.0944 8.84822 15.1479 8.92079 15.1849C8.99337 15.2218 9.07365 15.2411 9.15509 15.2411C9.23653 15.2411 9.31681 15.2218 9.38939 15.1849C9.46197 15.1479 9.52478 15.0944 9.57271 15.0285C10.7273 13.4694 13.8717 8.95522 13.8717 6.1033C13.8717 3.62675 11.7591 1.61597 9.15509 1.61597Z" stroke="#797979" stroke-width="1.04814" stroke-linecap="round" stroke-linejoin="round"/>
<path d="M9.15521 7.90466C10.0235 7.90466 10.7274 7.20076 10.7274 6.33246C10.7274 5.46415 10.0235 4.76025 9.15521 4.76025C8.28691 4.76025 7.58301 5.46415 7.58301 6.33246C7.58301 7.20076 8.28691 7.90466 9.15521 7.90466Z" stroke="#797979" stroke-width="1.04814" stroke-linecap="round" stroke-linejoin="round"/>
</svg>
