<svg width="18" height="17" viewBox="0 0 18 17" fill="none" xmlns="http://www.w3.org/2000/svg">
<g clip-path="url(#clip0_355_13820)">
<path d="M9.0162 7.66008C7.43002 7.24781 6.91993 6.82157 6.91993 6.15775C6.91993 5.3961 7.62568 4.86505 8.80658 4.86505C10.0504 4.86505 10.5115 5.45899 10.5535 6.33244H12.0977C12.0488 5.13058 11.3151 4.02654 9.85471 3.67017V2.13989H7.75844V3.64921C6.40285 3.94269 5.31279 4.82312 5.31279 6.17173C5.31279 7.78586 6.64742 8.58943 8.59695 9.05759C10.3438 9.47685 10.6932 10.0918 10.6932 10.7416C10.6932 11.2237 10.3508 11.9924 8.80658 11.9924C7.36714 11.9924 6.80114 11.3495 6.72428 10.525H5.18701C5.27086 12.0553 6.41683 12.9147 7.75844 13.2012V14.7175H9.85471V13.2152C11.2173 12.9567 12.3004 12.1671 12.3004 10.7346C12.3004 8.75014 10.6024 8.07235 9.0162 7.66008Z" fill="#797979"/>
</g>
<rect x="1.18927" y="0.462956" width="15.9317" height="15.9317" rx="7.96584" stroke="#797979" stroke-width="0.838509"/>
<defs>
<clipPath id="clip0_355_13820">
<rect x="0.77002" y="0.0437012" width="16.7702" height="16.7702" rx="8.38509" fill="white"/>
</clipPath>
</defs>
</svg>
